<svg width="60" height="60" viewBox="0 0 60 60" fill="none" xmlns="http://www.w3.org/2000/svg">
<path d="M47.3972 18.517V22.0935H12.582V18.517H47.3972ZM12.582 41.5041V37.9135H41.5043C41.8752 37.9106 42.2415 37.8316 42.5805 37.6814C42.9196 37.5313 43.2243 37.3132 43.4756 37.0405C43.7319 36.7632 43.9348 36.441 44.0742 36.09C44.2302 35.7107 44.307 35.3033 44.2994 34.8932C44.3037 34.4878 44.2271 34.0857 44.0742 33.7103C43.9334 33.3495 43.7309 33.016 43.4756 32.7247C43.2286 32.4316 42.9243 32.192 42.5815 32.0207C42.2434 31.8685 41.8749 31.7962 41.5043 31.8094H12.582V28.2328H41.5043C42.2929 28.2298 43.0723 28.403 43.7854 28.7398C44.5012 29.08 45.1425 29.5586 45.6723 30.1479C46.2295 30.7656 46.6665 31.4819 46.9607 32.26C47.2799 33.1033 47.4399 33.9985 47.4324 34.9002C47.4418 35.7975 47.2817 36.6883 46.9607 37.5263C46.6663 38.3043 46.2294 39.0206 45.6723 39.6385C45.1425 40.2276 44.5012 40.7062 43.7854 41.0465C43.0684 41.3663 42.2892 41.5226 41.5043 41.5041H12.582Z" fill="white"/>
<path d="M30 58C45.464 58 58 45.464 58 30C58 14.5361 45.464 2 30 2C14.5361 2 2 14.5361 2 30C2 45.464 14.5361 58 30 58Z" stroke="white" stroke-width="3.79" stroke-miterlimit="10"/>
</svg>
